<svg width="21" height="21" viewBox="0 0 21 21" fill="none" xmlns="http://www.w3.org/2000/svg">
<path d="M20.4872 18.0127L16.0449 13.5704C16.9627 12.187 17.5 10.5306 17.5 8.75C17.5 3.92525 13.5747 0 8.75 0C3.92525 0 0 3.92525 0 8.75C0 13.5747 3.92525 17.5 8.75 17.5C10.5306 17.5 12.187 16.9627 13.5704 16.0449L18.0127 20.4872C18.6952 21.1706 19.8047 21.1706 20.4872 20.4872C21.1706 19.8039 21.1706 18.6961 20.4872 18.0127ZM2.625 8.75C2.625 5.3725 5.3725 2.625 8.75 2.625C12.1275 2.625 14.875 5.3725 14.875 8.75C14.875 12.1275 12.1275 14.875 8.75 14.875C5.3725 14.875 2.625 12.1275 2.625 8.75Z" fill="black"/>
</svg>
